<?xml version="1.0" standalone="no"?>
<!DOCTYPE svg PUBLIC "-//W3C//DTD SVG 20010904//EN"
 "http://www.w3.org/TR/2001/REC-SVG-20010904/DTD/svg10.dtd">
<svg version="1.0" xmlns="http://www.w3.org/2000/svg"
 width="500.000000pt" height="500.000000pt" viewBox="0 0 500.000000 500.000000"
 preserveAspectRatio="xMidYMid meet">

<g transform="translate(0.000000,500.000000) scale(0.100000,-0.100000)"
fill="#000000" stroke="none">
<path d="M2461 4813 c-272 -459 -826 -685 -1341 -547 -107 28 -265 101 -355
163 l-60 41 -3 -1588 c-2 -1725 -3 -1687 53 -1806 30 -64 116 -162 181 -207
130 -89 290 -148 570 -208 104 -23 233 -55 287 -72 202 -62 413 -194 615 -384
l93 -88 77 75 c146 141 306 256 457 330 104 50 230 89 435 133 229 50 272 61
375 102 232 92 365 211 427 383 l23 65 3 1633 c2 1321 0 1632 -10 1626 -7 -4
-38 -25 -69 -46 -145 -98 -347 -169 -538 -188 -447 -46 -909 190 -1142 583
-18 31 -36 57 -39 57 -3 0 -21 -26 -39 -57z m409 -564 c-19 -12 -72 -46 -118
-77 l-83 -55 -39 18 c-26 12 -43 14 -55 8 -14 -8 5 -22 100 -72 104 -55 119
-61 133 -48 13 14 9 18 -32 39 l-46 24 100 79 c56 44 105 81 109 83 12 4 36
-60 57 -153 24 -105 24 -283 0 -380 -36 -148 -133 -301 -254 -401 -84 -69
-221 -137 -332 -164 -96 -23 -308 -38 -333 -24 -15 9 -8 28 58 162 74 151 189
357 205 367 5 3 24 -4 42 -15 40 -24 54 -25 62 -5 4 12 -23 30 -110 73 -96 48
-116 55 -124 42 -7 -12 1 -20 35 -38 25 -12 45 -24 45 -27 0 -2 -14 -28 -31
-57 -49 -83 -132 -255 -174 -358 -21 -52 -42 -99 -46 -104 -4 -5 -14 15 -23
43 -109 368 57 796 372 959 135 70 254 99 417 101 l100 1 -35 -21z m-1627
-341 l92 -3 -73 -53 c-39 -29 -72 -56 -72 -60 0 -5 11 -42 25 -82 14 -40 23
-75 20 -78 -2 -3 -35 18 -72 46 -49 37 -72 48 -83 41 -8 -5 -43 -29 -76 -54
l-62 -45 28 90 28 89 -75 53 -74 53 93 3 94 3 29 87 28 87 29 -87 29 -87 92
-3z m483 87 l26 -85 96 0 96 0 -77 -56 c-43 -31 -76 -61 -74 -68 24 -66 48
-148 44 -152 -3 -3 -36 17 -73 45 l-68 50 -31 -22 c-16 -11 -47 -34 -68 -50
-21 -16 -40 -27 -43 -24 -5 5 18 84 43 153 2 6 -29 36 -69 65 l-73 54 92 3 92
3 26 84 c14 47 28 85 30 85 2 0 16 -38 31 -85z m1727 -87 l91 -3 -72 -53 c-40
-30 -72 -55 -72 -55 0 -1 11 -38 25 -81 14 -44 23 -82 21 -84 -3 -2 -35 19
-73 47 -57 42 -71 48 -85 38 -9 -7 -44 -31 -77 -55 l-60 -43 30 88 c16 48 26
90 22 94 -5 4 -39 30 -78 58 l-70 51 96 0 95 0 28 88 29 87 29 -87 29 -87 92
-3z m483 87 l28 -85 95 0 96 0 -70 -51 c-39 -28 -73 -54 -78 -58 -4 -4 6 -46
22 -94 l30 -88 -60 43 c-33 24 -68 48 -77 55 -14 10 -28 4 -85 -38 -38 -28
-70 -49 -73 -47 -2 2 7 40 21 84 14 43 25 80 25 81 0 0 -32 25 -72 55 l-72 53
91 3 92 3 28 84 c15 47 28 85 29 85 2 0 15 -38 30 -85z m-2694 -637 l91 -3
-63 -45 c-35 -25 -68 -48 -73 -51 -5 -4 3 -43 17 -89 15 -46 25 -84 23 -86 -2
-2 -30 16 -63 39 -32 24 -65 47 -72 51 -8 5 -38 -11 -81 -43 -38 -28 -71 -51
-74 -51 -3 0 7 38 23 85 l29 86 -72 52 -72 52 90 5 90 5 23 70 c12 39 25 77
28 85 4 9 18 -20 36 -72 l29 -87 91 -3z m484 87 l28 -84 90 -3 91 -3 -70 -49
c-39 -27 -72 -51 -74 -52 -1 -2 9 -39 24 -84 15 -45 25 -83 23 -85 -2 -2 -34
18 -71 46 -37 27 -69 49 -72 49 -3 0 -35 -22 -72 -49 -37 -28 -69 -48 -71 -46
-2 2 8 40 23 85 15 45 25 82 24 84 -2 1 -35 25 -72 52 l-69 49 89 3 89 3 28
84 c15 47 29 85 31 85 2 0 16 -38 31 -85z m1609 0 l26 -84 91 -3 91 -3 -63
-45 c-35 -25 -68 -48 -73 -51 -5 -4 2 -41 18 -88 15 -45 25 -84 23 -87 -3 -2
-29 14 -59 37 -88 66 -81 65 -156 10 -38 -27 -69 -46 -71 -42 -1 5 8 43 22 85
l24 78 -71 51 -71 52 90 3 90 3 23 72 c12 40 24 78 26 85 8 23 14 12 40 -73z
m601 0 l28 -84 90 -3 90 -3 -71 -52 -71 -51 24 -78 c14 -42 23 -80 22 -85 -2
-4 -33 15 -71 42 -75 55 -68 56 -156 -10 -30 -23 -56 -39 -59 -37 -2 3 8 42
23 87 16 47 23 84 18 88 -5 3 -38 26 -73 51 l-63 45 91 3 91 3 26 84 c14 47
27 85 30 85 2 0 16 -38 31 -85z m184 -1283 c0 -507 -4 -798 -11 -836 -22 -120
-83 -217 -184 -293 -124 -93 -238 -137 -545 -209 -311 -72 -457 -130 -617
-243 -72 -51 -186 -156 -236 -219 l-26 -33 -38 43 c-211 243 -432 362 -843
453 -279 62 -426 118 -545 208 -101 76 -162 173 -184 293 -7 38 -11 329 -11
836 l0 778 1620 0 1620 0 0 -778z"/>
<path d="M2461 4056 c-15 -18 -4 -25 131 -92 91 -45 99 -47 114 -32 16 15 8
21 -104 77 -67 34 -123 61 -126 61 -2 0 -9 -6 -15 -14z"/>
<path d="M2355 3959 c-9 -13 -18 -8 122 -77 98 -50 123 -59 132 -48 15 18 8
23 -116 85 -106 52 -127 59 -138 40z"/>
<path d="M2277 3863 c-16 -15 -1 -26 113 -83 109 -55 120 -58 129 -42 8 16 -5
25 -105 75 -117 59 -126 62 -137 50z"/>
<path d="M1072 2633 l3 -118 38 -3 37 -3 0 -531 0 -531 -61 7 -61 7 6 -68 c3
-37 9 -93 12 -124 l6 -57 80 -7 c104 -9 198 -33 323 -84 54 -22 101 -38 103
-37 4 5 -19 259 -24 268 -2 3 -24 14 -49 24 l-45 17 1 246 c0 135 3 242 5 236
2 -5 71 -199 153 -430 l149 -420 134 -41 133 -41 3 779 2 778 40 0 40 0 0 120
0 120 -225 0 -225 0 0 -120 0 -120 45 0 45 0 0 -292 c0 -160 -2 -289 -5 -287
-2 3 -67 182 -144 399 -76 217 -142 403 -146 413 -6 15 -25 17 -191 17 l-185
0 3 -117z"/>
<path d="M2210 2620 l0 -120 50 0 50 0 0 -697 0 -698 -60 3 -60 4 0 -106 0
-105 38 -6 c132 -21 231 -49 336 -94 65 -28 120 -51 122 -51 2 0 4 54 4 121
l0 120 -45 20 -45 20 0 395 0 395 72 -3 72 -3 17 -45 17 -45 81 -3 81 -3 0
221 0 220 -80 0 -79 0 -18 -50 -18 -50 -72 0 -73 0 0 220 0 220 93 0 94 0 28
-70 28 -70 99 0 98 0 0 190 0 190 -415 0 -415 0 0 -120z"/>
<path d="M3130 2639 l0 -100 45 -20 45 -20 0 -632 0 -632 -63 -35 -62 -36 -3
-138 c-1 -76 1 -136 5 -134 5 1 82 43 172 92 241 131 384 182 604 217 l77 12
0 263 0 264 -110 0 -110 0 0 -169 c0 -153 -2 -170 -17 -175 -33 -9 -194 -46
-204 -46 -5 0 -9 232 -9 576 l0 576 40 15 40 16 0 104 0 103 -225 0 -225 0 0
-101z"/>
</g>
</svg>
